<svg width="90" height="28" viewBox="0 0 90 28" fill="none" xmlns="http://www.w3.org/2000/svg">
<g clip-path="url(#clip0_228_35)">
<path d="M47.2977 7.03512C47.2977 8.04422 46.4846 8.85676 45.4755 8.85676C44.4664 8.85676 43.6539 8.04422 43.6539 7.03512C43.6539 6.02602 44.4387 5.21347 45.4755 5.21347C46.5132 5.24147 47.2977 6.0543 47.2977 7.03512ZM39.786 10.707V11.1555C39.786 11.1555 38.9175 10.0339 37.0676 10.0339C34.0128 10.0339 31.6301 12.3603 31.6301 15.5833C31.6301 18.7786 33.9848 21.1328 37.0676 21.1328C38.9455 21.1328 39.786 19.9837 39.786 19.9837V20.46C39.786 20.6843 39.9546 20.852 40.1786 20.852H42.4485V10.3133H40.1786C39.9546 10.3141 39.786 10.5107 39.786 10.707ZM39.786 17.4613C39.366 18.0781 38.5249 18.6106 37.5161 18.6106C35.7225 18.6106 34.3488 17.4895 34.3488 15.5833C34.3488 13.6774 35.7225 12.5563 37.5161 12.5563C38.4972 12.5563 39.394 13.1169 39.786 13.7054V17.4613ZM44.1304 10.3141H46.8209V20.8528H44.1304V10.3141ZM84.3222 10.0336C82.4723 10.0336 81.6032 11.1552 81.6032 11.1552V5.24147H78.9127V20.8528H81.1832C81.4075 20.8528 81.5752 20.6566 81.5752 20.4603V19.984C81.5752 19.984 82.4443 21.1331 84.2937 21.1331C87.349 21.1331 89.7312 18.7795 89.7312 15.5842C89.7312 12.3889 87.349 10.0336 84.3222 10.0336ZM83.8737 18.5824C82.8363 18.5824 82.0238 18.0504 81.6032 17.4333V13.6774C82.0238 13.1169 82.9206 12.5283 83.8737 12.5283C85.6673 12.5283 87.0407 13.6494 87.0407 15.5553C87.0407 17.4613 85.6676 18.5824 83.8737 18.5824ZM77.5117 14.6028V20.8808H74.8206V14.9108C74.8206 13.1734 74.2601 12.4723 72.7475 12.4723C71.935 12.4723 71.0939 12.8929 70.5605 13.5097V20.8531H67.8706V10.3144H70C70.2242 10.3144 70.3925 10.5107 70.3925 10.707V11.1555C71.1773 10.3424 72.2141 10.0339 73.251 10.0339C74.4283 10.0339 75.4094 10.3707 76.1943 11.0432C77.1468 11.8281 77.5117 12.8369 77.5117 14.6028ZM61.3392 10.0336C59.4898 10.0336 58.6207 11.1552 58.6207 11.1552V5.24147H55.9302V20.8528H58.2002C58.4244 20.8528 58.5927 20.6566 58.5927 20.4603V19.984C58.5927 19.984 59.4618 21.1331 61.3112 21.1331C64.3665 21.1331 66.7487 18.7795 66.7487 15.5842C66.7767 12.3886 64.3945 10.0336 61.3392 10.0336ZM60.8906 18.5824C59.8538 18.5824 59.0413 18.0504 58.6207 17.4333V13.6774C59.0413 13.1169 59.9381 12.5283 60.8906 12.5283C62.6848 12.5283 64.0579 13.6494 64.0579 15.5553C64.0579 17.4613 62.6848 18.5824 60.8906 18.5824ZM53.6038 10.0336C54.4163 10.0336 54.8369 10.1741 54.8369 10.1741V12.6683C54.8369 12.6683 52.5947 11.9115 51.1936 13.5094V20.8806H48.5025V10.3141H50.773C50.9973 10.3141 51.165 10.5104 51.165 10.7067V11.1552C51.6701 10.5664 52.7632 10.0336 53.6038 10.0336ZM25.6606 19.8997C25.5206 19.5635 25.3803 19.1992 25.2403 18.8906C25.0158 18.3864 24.7915 17.9095 24.5958 17.4613L24.5678 17.4333C22.6336 13.2289 20.5599 8.96904 18.3735 4.7652L18.2895 4.59664C18.0595 4.16054 17.8354 3.72138 17.6172 3.27927C17.3366 2.77444 17.0567 2.24245 16.6081 1.73762C15.7113 0.616523 14.4219 -0.000305176 13.0488 -0.000305176C11.6472 -0.000305176 10.3861 0.616526 9.46153 1.68134C9.04098 2.18561 8.73242 2.71817 8.45243 3.223C8.23368 3.66483 8.00958 4.10398 7.78016 4.54037L7.69588 4.70892C5.53769 8.91276 3.43577 13.1729 1.50184 17.377L1.47357 17.4327C1.27757 17.8818 1.05302 18.3581 0.828741 18.8621C0.688743 19.1706 0.548746 19.5069 0.408749 19.8712C0.0441964 20.908 -0.0680868 21.8891 0.0724704 22.8985C0.380744 25.0007 1.78184 26.7658 3.71604 27.5512C4.44486 27.8597 5.20169 27.9997 5.98623 27.9997C6.21051 27.9997 6.49051 27.9717 6.71507 27.9434C7.64017 27.8314 8.59299 27.5234 9.51809 26.9909C10.6672 26.346 11.7603 25.4215 12.9934 24.0761C14.2265 25.4215 15.3476 26.346 16.4687 26.9909C17.3941 27.5234 18.3466 27.8314 19.2714 27.9434C19.4957 27.972 19.7762 27.9997 20.0005 27.9997C20.7853 27.9997 21.5699 27.8597 22.2704 27.5512C24.2326 26.7658 25.6057 24.9727 25.9143 22.8985C26.1369 21.9177 26.0249 20.9371 25.6606 19.8997ZM13.0205 21.3571C11.5069 19.4512 10.5258 17.6575 10.1898 16.1445C10.0498 15.4996 10.0215 14.9391 10.1058 14.4345C10.1615 13.986 10.3301 13.5934 10.5543 13.2571C11.0869 12.5009 11.9837 12.0241 13.0208 12.0241C14.0582 12.0241 14.983 12.4726 15.4876 13.2571C15.7118 13.5934 15.8798 13.9863 15.9364 14.4345C16.0201 14.9394 15.9921 15.5276 15.8521 16.1445C15.5147 17.6295 14.5336 19.4235 13.0205 21.3571ZM24.2029 22.6745C24.007 24.1319 23.0259 25.3935 21.6528 25.9541C20.9802 26.234 20.2511 26.3183 19.5228 26.234C18.8223 26.1498 18.1212 25.9255 17.3929 25.5055C16.3838 24.9444 15.375 24.0761 14.1976 22.7865C16.0473 20.5166 17.1684 18.4421 17.5889 16.5927C17.7852 15.7236 17.8135 14.9391 17.7289 14.21C17.6172 13.5094 17.3646 12.8646 16.9724 12.3041C16.103 11.0424 14.6453 10.3141 13.0203 10.3141C11.3952 10.3141 9.93752 11.071 9.06869 12.3041C8.67642 12.8646 8.42386 13.5094 8.31187 14.21C8.19987 14.9391 8.22759 15.7516 8.45186 16.5927C8.87214 18.4421 10.0212 20.5443 11.8429 22.8145C10.6938 24.1039 9.65668 24.973 8.64758 25.5335C7.91876 25.9541 7.21849 26.1783 6.51795 26.2621C5.7614 26.3463 5.0323 26.2341 4.38775 25.9821C3.01466 25.4215 2.03356 24.1599 1.83756 22.7025C1.75356 22.0019 1.80928 21.3014 2.08983 20.5166C2.17355 20.236 2.31411 19.956 2.45411 19.6198C2.65038 19.1712 2.8741 18.6944 3.09865 18.2181L3.12694 18.1624C5.06058 13.986 7.1345 9.72586 9.29269 5.57802L9.37669 5.40947C9.60124 4.98948 9.82552 4.54093 10.0495 4.12038C10.2738 3.67182 10.5258 3.25127 10.8343 2.88672C11.4229 2.21473 12.2074 1.8499 13.0765 1.8499C13.9456 1.8499 14.7302 2.21473 15.3187 2.88672C15.6273 3.25211 15.8793 3.67266 16.1036 4.12038C16.3281 4.54093 16.5524 4.98948 16.7761 5.40947L16.8604 5.57802C18.9857 9.7431 21.032 13.948 22.9984 18.1904V18.2184C23.223 18.6675 23.419 19.1715 23.6432 19.6206C23.7832 19.9563 23.9235 20.2363 24.0075 20.5169C24.2312 21.2448 24.3152 21.9459 24.2029 22.6745Z" fill="white"/>
</g>
<defs>
<clipPath id="clip0_228_35">
<rect width="89.7436" height="28" fill="white"/>
</clipPath>
</defs>
</svg>
