<svg width="96" height="28" viewBox="0 0 96 28" fill="none" xmlns="http://www.w3.org/2000/svg">
<path fill-rule="evenodd" clip-rule="evenodd" d="M0 0H19.5415V28H0V0ZM2.81659 25.1812H16.7152V2.81985H2.81659V25.1812Z" fill="#F7D730"/>
<path fill-rule="evenodd" clip-rule="evenodd" d="M32.5221 12.5624H31.3133C29.7256 10.3195 28.1508 8.09076 26.5782 5.57188H26.5668V12.5624H25.2306V2.81547H26.4404C28.0282 5.04261 29.6008 7.25565 31.1588 9.76152H31.1865V2.81547H32.5226V12.5624H32.5221ZM35.6982 8.70462C36.0859 7.42321 36.4764 6.23996 36.8251 4.73568H36.8533C37.2426 6.23996 37.5913 7.42376 37.953 8.70462H35.6982ZM36.337 2.81547L32.9695 12.5624H34.4173L35.2644 9.90197H38.2041L38.9692 12.5624H40.8363L37.7301 2.81547H36.337ZM42.4084 12.5624V4.12291H39.8456V2.81547H46.6398V4.12291H44.0791V12.5624H42.4084ZM47.1815 2.81547H48.8409V12.5624H47.1815V2.81547ZM53.9925 11.3352C52.2502 11.3352 51.6379 9.41392 51.6379 7.54794C51.6379 5.75246 52.3337 4.0394 53.9925 4.0394C55.6492 4.0394 56.3427 5.75246 56.3427 7.54794C56.3427 9.41392 55.7316 11.3352 53.9925 11.3352ZM53.9925 12.7272C56.5396 12.7272 58.1263 10.4589 58.1263 7.54739C58.1263 4.81919 56.3747 2.64737 53.9925 2.64737C51.6124 2.64737 49.8533 4.81919 49.8533 7.54739C49.8538 10.4594 51.4433 12.7272 53.9925 12.7272ZM66.4383 12.5624H65.228C63.6391 10.3195 62.0654 8.09076 60.4939 5.57188H60.4803V12.5624H59.1458V2.81547H60.3561C61.9418 5.04261 63.5155 7.25565 65.0723 9.76152H65.1011V2.81547H66.4389V12.5624H66.4383ZM69.6128 8.70462C70.0038 7.42321 70.3915 6.23996 70.7419 4.73568H70.7695C71.1594 6.23996 71.5065 7.42376 71.8676 8.70462H69.6128ZM70.2549 2.81547L66.8857 12.5624H68.3347L69.1817 9.90197H72.1209L72.8866 12.5624H74.7515L71.6458 2.81547H70.2549ZM75.2368 2.81547H76.8967V11.2528H80.1949V12.5624H75.2368V2.81547ZM31.495 20.715V24.7376C30.603 25.0874 29.6697 25.3363 28.7256 25.3363C25.8564 25.3363 24.0468 23.1086 24.0468 20.24C24.0468 17.5795 25.8564 15.2553 28.7804 15.2553C29.6838 15.2553 30.5894 15.591 31.1469 16.008L30.6035 17.1636C30.1588 16.8876 29.4609 16.6506 28.8216 16.6506C27.0407 16.6506 25.8282 18.0573 25.8282 20.2714C25.8282 22.581 27.2213 23.9443 28.6556 23.9443C29.0992 23.9443 29.4772 23.8911 29.827 23.7084V20.715H31.495ZM37.4709 16.7341H34.6831V19.4059H37.4118V20.715H34.6831V23.8597H37.9687V25.1704H33.0112V15.4229H37.4709V16.7341ZM42.622 23.9437C40.8797 23.9437 40.2664 22.0241 40.2664 20.157C40.2664 18.3626 40.9626 16.6501 42.622 16.6501C44.2776 16.6501 44.9722 18.3626 44.9722 20.157C44.9722 22.0241 44.3584 23.9437 42.622 23.9437ZM42.622 25.3363C45.1686 25.3363 46.7547 23.0669 46.7547 20.1565C46.7547 17.4282 45.0015 15.2548 42.622 15.2548C40.2382 15.2548 38.4861 17.4282 38.4861 20.1565C38.4855 23.0674 40.0701 25.3363 42.622 25.3363ZM54.7734 20.715V24.7376C53.8813 25.0874 52.9508 25.3363 52.0029 25.3363C49.1359 25.3363 47.3247 23.1086 47.3247 20.24C47.3247 17.5795 49.1359 15.2553 52.0598 15.2553C52.9654 15.2553 53.8689 15.591 54.4247 16.008L53.8813 17.1636C53.4356 16.8876 52.7436 16.6506 52.1021 16.6506C50.3175 16.6506 49.106 18.0573 49.106 20.2714C49.106 22.581 50.4997 23.9443 51.934 23.9443C52.3809 23.9443 52.755 23.8911 53.1043 23.7084V20.715H54.7734ZM57.9793 16.7341H58.7152C59.7011 16.7341 60.2596 17.3024 60.2596 18.3062C60.2596 19.6136 59.4674 20.1977 58.6729 20.2394C58.5053 20.2562 58.1149 20.2703 57.9793 20.2823V16.7341ZM62.2107 25.1704L60.2439 21.1342C61.316 20.5648 61.932 19.4059 61.932 18.2362C61.932 16.341 60.7742 15.4229 58.9083 15.4229H56.3048V25.1704H57.9793V21.4948H58.7304L60.3008 25.1704H62.2107ZM64.9666 21.3131C65.3554 20.0301 65.7453 18.8479 66.0945 17.3442H66.1222C66.5121 18.8479 66.8591 20.0301 67.2214 21.3131H64.9666ZM65.6059 15.4229L62.2357 25.1704H63.6836L64.5339 22.5099H67.473L68.2344 25.1704H70.1036L66.9969 15.4229H65.6059ZM73.2353 15.4229H70.6318V25.1704H72.3031V21.4948H73.053C75.0454 21.4948 76.2579 19.8793 76.2579 18.2362C76.2579 16.3404 75.1012 15.4229 73.2353 15.4229ZM73.001 20.24C72.8275 20.2557 72.4197 20.2687 72.3031 20.2801V16.7341H73.053C74.0275 16.7341 74.5866 17.3024 74.5866 18.3062C74.5866 19.6136 73.7954 20.1982 73.001 20.24ZM83.9979 25.1704H82.3276V20.4797H78.8581V25.1704H77.2058V15.4229H78.8581V19.1684H82.3276V15.4506H83.9979V25.1704ZM85.5976 15.4229H87.258V25.1704H85.5976V15.4229ZM94.7735 17.1924C94.3689 16.9413 93.7036 16.6501 93.0599 16.6501C91.3587 16.6501 90.124 18.0567 90.124 20.2709C90.124 22.5804 91.4873 23.9437 93.1032 23.9437C93.6947 23.9409 94.2735 23.7718 94.7735 23.4557L95.2344 24.6682C94.7301 25.0158 93.8418 25.3363 93.0355 25.3363C90.1663 25.3363 88.3551 23.1086 88.3551 20.24C88.3551 17.5795 90.1506 15.2553 93.0599 15.2553C93.9253 15.2553 94.7301 15.6198 95.3044 16.008L94.7735 17.1924Z" fill="white"/>
</svg>
