<svg width="120" height="28" viewBox="0 0 120 28" fill="none" xmlns="http://www.w3.org/2000/svg">
<g clip-path="url(#clip0_228_31)">
<path d="M57.9762 20.9304C57.9962 21.5056 57.5802 21.8622 56.7279 22.0004C56.4902 22.0405 55.8459 22.0605 54.7961 22.0605C52.9734 22.0605 51.6264 21.6795 50.7548 20.9156C49.8832 20.1526 49.4472 18.8798 49.4472 17.0965V3.96077C49.4472 2.95034 49.933 2.445 50.9034 2.445H52.3894C52.6272 2.445 52.7461 2.56407 52.7461 2.80174V6.81393H57.0266C57.2844 6.81393 57.413 6.94253 57.413 7.20032V9.10247C57.413 9.36025 57.2844 9.48885 57.0266 9.48885H53.1332C52.8753 9.48885 52.7469 9.61744 52.7469 9.87523V17.127C52.7469 18.0194 52.9452 18.6034 53.342 18.8805C53.6585 19.119 54.2826 19.2379 55.2136 19.2379C55.1541 19.2379 55.967 19.2081 57.6508 19.148C57.8491 19.148 57.948 19.2468 57.948 19.4452L57.9762 20.9304ZM68.8152 7.67588L68.7854 9.10247C68.7854 9.34025 68.6666 9.45908 68.4289 9.45908C67.1999 9.41895 66.1106 9.39895 65.1604 9.39895C63.4959 9.39895 62.6639 10.1027 62.6639 11.5098V21.5257C62.6639 21.7633 62.5449 21.8823 62.3071 21.8823H59.7215C59.4837 21.8823 59.3648 21.7633 59.3648 21.5257V12.015C59.3648 8.36983 61.336 6.5465 65.2792 6.5465C66.5075 6.5465 67.2103 6.55614 67.3894 6.57543C68.3598 6.71439 68.8353 7.08148 68.8152 7.67588ZM83.6799 20.336C83.6799 21.0493 83.3032 21.4758 82.5498 21.614C81.0051 21.9112 79.103 22.0605 76.8442 22.0605C72.2078 22.0605 69.8897 20.5151 69.8897 17.4242C69.8897 16.037 70.4445 14.9775 71.5539 14.2442C72.3468 13.7292 73.5356 13.3324 75.1204 13.0552C75.9533 12.909 76.7857 12.7601 77.6177 12.6087C78.9253 12.3709 79.7575 12.1629 80.1134 11.9846C80.2918 11.9051 80.3809 11.7171 80.3809 11.4206C80.3809 10.529 80.0049 9.92429 79.2516 9.60768C78.756 9.40931 77.9736 9.31048 76.9043 9.31048C75.5373 9.31048 74.2689 9.37002 73.0994 9.48956L71.3764 9.69687C71.178 9.69687 71.0792 9.59804 71.0792 9.39967L71.0494 8.0325C71.0294 7.35856 71.386 6.96265 72.1194 6.8437C73.3082 6.64604 74.9629 6.54721 77.0827 6.54721C79.2426 6.54721 80.8379 6.92395 81.8677 7.6766C83.0766 8.5682 83.6806 10.0438 83.6806 12.1042V20.336H83.6799ZM80.4106 19.0581V14.6595L74.8536 15.6997C73.783 15.8981 73.248 16.4732 73.248 17.4242C73.248 18.7125 74.526 19.356 77.082 19.356C78.548 19.356 79.6572 19.2564 80.4106 19.0581ZM99.9014 7.02123C99.9014 7.21972 99.8716 7.3482 99.8122 7.40762L94.2842 21.5248C94.2842 21.7827 94.0858 21.9112 93.689 21.9112H90.5386C90.182 21.9112 89.9242 21.7826 89.7658 21.5248L84.6244 7.40762C84.5648 7.3482 84.5351 7.21972 84.5351 7.02123C84.5351 6.82274 84.6637 6.72332 84.9215 6.72332H87.1802C87.7746 6.72332 88.2108 6.92169 88.488 7.31855L92.2327 18.76H92.3219L96.2442 7.31855C96.5221 6.92169 96.8884 6.72332 97.3447 6.72332H99.5141C99.7728 6.72403 99.9014 6.82286 99.9014 7.02123ZM114.303 11.0046C114.303 12.4705 113.828 13.5606 112.877 14.2731C112.144 14.788 110.965 15.1945 109.34 15.4924L103.485 16.5326C103.723 17.642 104.267 18.385 105.119 18.7609C105.714 19.0186 106.675 19.1472 108.003 19.1472C108.756 19.1472 109.766 19.0982 111.035 18.9994L112.966 18.8798C113.184 18.8798 113.303 19.0084 113.323 19.2661L113.383 20.6637C113.422 21.4558 112.59 21.9217 110.885 22.0605H107.527C104.813 22.0605 102.851 21.4068 101.642 20.0991C100.494 18.87 99.9193 16.8892 99.9193 14.155C99.9193 11.4809 100.499 9.54386 101.658 8.3453C102.817 7.14685 104.724 6.54733 107.379 6.54733C111.996 6.5465 114.303 8.0325 114.303 11.0046ZM110.945 11.0633C110.945 9.83511 109.836 9.2213 107.617 9.2213C105.952 9.2213 104.818 9.52374 104.213 10.1278C103.609 10.7319 103.307 11.8664 103.307 13.5301V14.0353L108.032 13.1735C109.063 12.975 109.726 12.8064 110.024 12.6681C110.638 12.3517 110.945 11.8168 110.945 11.0633H110.945ZM119 21.4952C119 21.7129 118.881 21.8214 118.643 21.8214H116.116C115.839 21.8214 115.701 21.7129 115.701 21.4952V1.73105C115.701 0.740627 116.196 0.245056 117.186 0.245056H118.642C118.88 0.245056 118.999 0.363888 118.999 0.601672V21.4952H119Z" fill="white"/>
<path d="M20.3694 0.626426C20.3694 0.181818 20.0792 -0.00012207 19.7129 -0.00012207H17.403C16.4868 -0.00012207 15.8334 0.459252 15.8334 1.57816V21.3652C15.8334 21.8036 16.1251 21.9931 16.4945 21.9931H18.7998C19.7179 21.9931 20.3694 21.5338 20.3694 20.4128V0.626426ZM46.7708 7.3008C46.7708 6.92989 46.497 6.74641 46.1225 6.74641H43.3191C42.7577 6.74641 42.5086 6.94454 42.3003 7.39939L38.3486 16.1717L32.8375 7.49143C32.5011 6.95168 32.1378 6.74641 31.3207 6.74641H27.9894C27.2994 6.74641 26.9264 6.92978 26.5159 7.37093L20.6485 13.6743L25.9086 21.3454C26.2141 21.786 26.468 21.9928 26.9264 21.9928H30.0631C30.5326 21.9928 30.806 21.8038 30.806 21.4095C30.806 21.1706 30.6911 21.0141 30.5326 20.7911L25.9086 13.945L29.4153 10.1672L36.3466 20.4131L33.2872 26.8855C33.2034 27.0782 33.1003 27.2615 33.1003 27.445C33.1003 27.8201 33.3751 27.9999 33.75 27.9999H36.5315C37.0966 27.9999 37.3415 27.8053 37.5488 27.3495L46.5875 7.86174C46.6753 7.6692 46.7708 7.49143 46.7708 7.3008ZM5.69227 12.0205C4.77102 11.8132 4.48489 11.5526 4.48489 11.0882C4.48489 10.7268 4.77102 10.4387 5.60237 10.4387H12.3279C13.4489 10.4387 13.9016 9.78425 13.9016 8.87015V7.40463C13.9016 7.03575 13.717 6.74617 13.2761 6.74617H5.39852C1.88785 6.74617 0.0479736 8.78108 0.0479736 11.3691C0.0479736 13.6744 1.46313 15.0774 4.29593 15.7075L8.81572 16.7187C9.73495 16.9219 10.02 17.1861 10.02 17.6561C10.02 18.0124 9.73495 18.3004 8.90765 18.3004H1.89559C0.774541 18.3004 0.321359 18.9503 0.321359 19.8701V21.3324C0.321359 21.6958 0.502346 21.993 0.943264 21.993H8.63426C12.7847 21.993 14.4585 19.96 14.4585 17.5515C14.4585 15.0631 13.0245 13.6598 10.2116 13.0321L5.69227 12.0205Z" fill="white"/>
</g>
<defs>
<clipPath id="clip0_228_31">
<rect width="119.048" height="28" fill="white"/>
</clipPath>
</defs>
</svg>
